<?xml version="1.0" encoding="utf-8"?>
<!-- Generator: Adobe Illustrator 24.0.2, SVG Export Plug-In . SVG Version: 6.00 Build 0)  -->
<svg version="1.1" id="Capa_1" xmlns="http://www.w3.org/2000/svg" xmlns:xlink="http://www.w3.org/1999/xlink" x="0px" y="0px"
	 viewBox="0 0 512 512" style="enable-background:new 0 0 512 512;" xml:space="preserve">
<path d="M122.1,505.2c-3.1,0-5.5-2.6-5.2-5.7c0.3-2.7,2.7-4.7,5.4-4.7h42.8l0.6-4.3c1.9-13.9,13.9-24.4,28-24.4h4.5V272.8
	c-0.1-13.4-6.1-21.7-15.7-21.7c-3.4,0-5.9,0.9-10.1,4.1l-10.2,7.8l3,3c7.1,7.1,9.3,9.4,10,10.1c1,2,1.4,4.2,1.2,6.4
	c-0.3,2.6-1.4,4.9-3.2,6.7c-0.6,0.6-1.3,1.1-2,1.6l-19,12c-2.8,1.8-6,2.7-9.2,2.7c-4.6,0-8.9-1.8-12.2-5.1l-9.6-9.6l-8.8,8.8
	c-2.7,2.7-6.3,4.2-10.1,4.2c-3.8,0-7.4-1.5-10.1-4.2l-7.4-7.4c-5.6-5.6-5.6-14.7,0-20.3l8.8-8.8l-9.6-9.6
	c-5.7-5.7-6.7-14.6-2.4-21.4l12-19c1.8-2.9,4.8-4.8,8.3-5.2c0.4,0,0.8-0.1,1.3-0.1c1.8,0,3.5,0.4,5.1,1.2c0.8,0.7,3.3,3.2,11.4,11.3
	l3,3l64.4-64.4l0,0l0.6-0.6l9.3-9.3l0.2-1.4c1-6.4,1.1-8.1,1.1-9v-25.6l-3.6-0.1c-10.4-0.4-18.9-8.8-18.9-19.2
	c0-10.1,7.9-18.4,18-19h5l6.4-27.9c1.8-7.8,8.8-13.4,16.8-13.4h13.6V21.1c0-7.9,6.4-14.3,14.3-14.3h10.4c7.9,0,14.3,6.4,14.3,14.3
	v12.4h13.6c8,0,15,5.6,16.8,13.4l6.5,27.9h6.8c10.1,0.5,18,8.9,18,19c0,10.4-8.5,18.8-18.9,19.2l-3.6,0.1v25.6c0,0.9,0.1,2.6,1.1,9
	l0.2,1.4l74.3,74.3l3-3c8.2-8.1,10.7-10.6,11.4-11.3c1.6-0.8,3.3-1.2,5.1-1.2c0.4,0,0.8,0,1.3,0.1c3.4,0.4,6.4,2.3,8.3,5.2l12,19
	c4.3,6.9,3.3,15.6-2.4,21.4l-9.6,9.6l8.8,8.8c5.6,5.6,5.6,14.7,0,20.3l-7.4,7.4c-2.7,2.7-6.3,4.2-10.1,4.2l0,0
	c-3.8,0-7.4-1.5-10.1-4.2l-8.8-8.8l-9.6,9.6c-3.3,3.3-7.6,5.1-12.2,5.1c-3.2,0-6.4-0.9-9.2-2.7l-19-12c-0.7-0.5-1.4-1-2-1.6
	c-1.8-1.8-2.9-4.1-3.2-6.7c-0.2-2.2,0.2-4.4,1.2-6.4c0.7-0.7,2.9-3,10-10.1l3-3l-9.5-8.1c-4.5-3.3-7.5-3.7-10.9-3.7
	c-9.6,0-15.6,8.3-15.7,21.7v193.3h4.5c14.1,0,26.1,10.5,28,24.4l0.6,4.3h42.8c2.7,0,5.2,2,5.4,4.7c0.3,3.1-2.1,5.7-5.2,5.7H122.1z
	 M193.7,476.6c-7.9,0-14.9,5.2-17.1,12.8l-1.6,5.5h160.2l-1.6-5.5c-2.2-7.6-9.2-12.8-17.1-12.8H193.7z M206,257.8
	c1.4,3.7,2.2,7.7,2.2,11.7v197.7H301v-1.1h0.5V268.4c0-1.8,0.1-3.6,0.4-5.4c2.4-8.1,13.3-17.7,13.3-17.7c2.7-2.1,9.8-4.5,12-4.5
	c3.4,0,6.9,1.1,9.7,2.9l19.9,13.2l25.2-26.4l-66-64.4l-0.8-0.8c-4.1-4.1-8.7-8.6-11.6-14.5c-1.8-7.1-2.2-10.5-2.2-12.2v-25.8h-93.4
	l0,26.9c0,1.1-0.2,3.2-1,7.2c-2.6,7.2-8,12.6-12.7,17.3l-0.8,0.8L130,230.8l24.2,24.2l18.5-12.3c2.8-1.8,6.3-2.9,9.7-2.9
	c2.2,0,10.3,3.4,13,5.5C195.4,245.3,202.8,251.9,206,257.8z M400.3,285.1l8.2,8.2c1.8,1.8,4.8,1.8,6.6,0l6.3-6.3
	c1.8-1.8,1.8-4.8,0-6.6l-8.2-8.2L400.3,285.1z M345.8,281.3l19.9,12.5c1.1,0.7,2.3,1,3.6,1c1.8,0,3.5-0.7,4.8-2l46.8-46.8
	c2.3-2.3,2.6-5.7,0.9-8.4l-12.5-19.9L345.8,281.3z M138.1,292.9c1.7,1.7,4.1,2.4,6.6,1.8c0.7-0.2,1.3-0.5,1.9-0.8l19.9-12.5
	l-63.6-63.6l-12.5,19.9c-1.7,2.7-1.3,6.2,0.9,8.4l33.6,33.6L138.1,292.9z M92.6,285.2l6.4,6.4c1.8,1.8,4.7,1.8,6.5,0l8.3-8.3
	l-12.9-12.9l-8.3,8.3C90.8,280.5,90.8,283.4,92.6,285.2z M194.7,85.2c-5,0-8.9,4.2-8.6,9.2c0.3,4.6,4.3,8,8.9,8
	c19.8,0,100.3,0,120,0c4.6,0,8.6-3.5,8.9-8c0.3-5-3.7-9.2-8.6-9.2H194.7z M221.9,43.9c-3.2,0-5.9,2.2-6.6,5.3l-5.2,22.9H300
	l-5.2-22.9c-0.7-3.1-3.4-5.3-6.6-5.3h-47.5L221.9,43.9z M245.9,33.5h18.2V20.8c0-2-1.6-3.6-3.6-3.6h-11.1c-2,0-3.6,1.6-3.6,3.6V33.5
	z"/>
<path d="M255.1,254.2c-28.1,0-51-22.9-51-51c0-28.1,22.9-51,51-51c28.1,0,51,22.9,51,51C306.1,231.3,283.3,254.2,255.1,254.2z
	 M255.1,162.6c-22.4,0-40.6,18.2-40.6,40.6c0,22.4,18.2,40.6,40.6,40.6s40.6-18.2,40.6-40.6C295.7,180.8,277.5,162.6,255.1,162.6z"
	/>
<path d="M272,372.2c-2.9,0-5.2-2.3-5.2-5.2v-79c0-2.9,2.3-5.2,5.2-5.2s5.2,2.3,5.2,5.2v79C277.3,369.9,274.9,372.2,272,372.2z"/>
<path d="M272,411.4c-0.3,0-0.7,0-1-0.1c-0.3-0.1-0.6-0.2-1-0.3c-0.3-0.1-0.6-0.3-0.9-0.5c-0.3-0.2-0.5-0.4-0.8-0.7
	c-0.2-0.2-0.4-0.5-0.6-0.8c-0.2-0.3-0.3-0.6-0.5-0.9c-0.1-0.3-0.2-0.6-0.3-1c-0.1-0.3-0.1-0.6-0.1-1c0-0.4,0-0.7,0.1-1
	c0.1-0.3,0.2-0.7,0.3-1c0.1-0.3,0.3-0.6,0.5-0.9c0.2-0.3,0.4-0.6,0.6-0.8c0.2-0.2,0.5-0.5,0.8-0.6c0.3-0.2,0.6-0.4,0.9-0.5
	c0.3-0.1,0.6-0.2,0.9-0.3c0.4-0.1,0.7-0.1,1.1-0.1c0.3,0,0.7,0,1,0.1c0.3,0.1,0.6,0.2,1,0.3c0.3,0.1,0.6,0.3,0.9,0.5
	c0.3,0.2,0.5,0.4,0.8,0.6c0.2,0.2,0.5,0.5,0.6,0.8c0.2,0.3,0.4,0.6,0.5,0.9c0.1,0.3,0.2,0.7,0.3,1c0.1,0.3,0.1,0.7,0.1,1
	s0,0.7-0.1,1c-0.1,0.3-0.2,0.7-0.3,1c-0.1,0.3-0.3,0.6-0.5,0.9c-0.2,0.3-0.4,0.6-0.6,0.8c-0.2,0.2-0.5,0.4-0.8,0.6
	c-0.3,0.2-0.6,0.4-0.9,0.5c-0.3,0.1-0.6,0.2-0.9,0.3C272.7,411.3,272.4,411.4,272,411.4z"/>
<path d="M263.9,199.6c-0.2-0.6-0.5-1.1-0.9-1.6c-0.3-0.5-0.7-1-1.2-1.4c-0.4-0.4-0.9-0.8-1.4-1.2c-0.5-0.3-1.1-0.6-1.6-0.9
	c-0.6-0.2-1.2-0.4-1.8-0.5c-1.2-0.2-2.5-0.2-3.7,0c-0.6,0.1-1.2,0.3-1.8,0.5c-0.6,0.2-1.1,0.5-1.6,0.9c-0.5,0.4-1,0.7-1.4,1.2
	c-0.4,0.4-0.8,0.9-1.2,1.4c-0.3,0.5-0.6,1.1-0.9,1.6c-0.2,0.6-0.4,1.2-0.5,1.8c-0.1,0.6-0.2,1.2-0.2,1.9s0.1,1.2,0.2,1.8
	c0.1,0.6,0.3,1.2,0.5,1.8c0.2,0.6,0.5,1.1,0.9,1.6c0.3,0.5,0.7,1,1.2,1.4c0.4,0.4,0.9,0.8,1.4,1.2c0.5,0.3,1.1,0.6,1.6,0.9
	c0.6,0.2,1.2,0.4,1.8,0.5c0.6,0.1,1.2,0.2,1.8,0.2c0.6,0,1.2-0.1,1.8-0.2c0.6-0.1,1.2-0.3,1.8-0.5c0.6-0.2,1.1-0.5,1.6-0.9
	c0.5-0.3,1-0.7,1.4-1.2c0.4-0.4,0.8-0.9,1.2-1.4c0.3-0.5,0.6-1.1,0.9-1.6c0.2-0.6,0.4-1.2,0.5-1.8c0.1-0.6,0.2-1.2,0.2-1.8
	s-0.1-1.2-0.2-1.9C264.3,200.7,264.1,200.1,263.9,199.6z"/>
<path d="M255.1,208.4c-0.3,0-0.7,0-1-0.1c-0.3-0.1-0.7-0.2-1-0.3c-0.3-0.1-0.6-0.3-0.9-0.5c-0.3-0.2-0.6-0.4-0.8-0.6
	c-0.2-0.2-0.5-0.5-0.6-0.8c-0.2-0.3-0.4-0.6-0.5-0.9c-0.1-0.4-0.2-0.7-0.3-0.9c-0.1-0.4-0.1-0.7-0.1-1.1c0-0.3,0-0.7,0.1-1
	c0.1-0.3,0.2-0.6,0.3-1c0.1-0.3,0.3-0.6,0.5-0.9c0.2-0.3,0.4-0.6,0.6-0.8c0.2-0.2,0.5-0.5,0.8-0.7c0.3-0.2,0.6-0.3,0.9-0.5
	c0.3-0.1,0.7-0.2,1-0.3c0.3-0.1,0.7-0.1,1-0.1c0.3,0,0.7,0,1,0.1c0.3,0.1,0.7,0.2,1,0.3c0.3,0.1,0.6,0.3,0.9,0.5
	c0.3,0.2,0.5,0.4,0.8,0.7c0.2,0.2,0.5,0.5,0.6,0.8c0.2,0.3,0.4,0.6,0.5,0.9c0.1,0.3,0.2,0.6,0.3,0.9c0.1,0.4,0.1,0.7,0.1,1.1
	c0,0.3,0,0.7-0.1,1c-0.1,0.3-0.2,0.7-0.3,1c-0.1,0.3-0.3,0.6-0.5,0.9c-0.2,0.3-0.4,0.6-0.6,0.8c-0.2,0.2-0.5,0.5-0.8,0.6
	c-0.3,0.2-0.6,0.4-0.9,0.5c-0.3,0.1-0.7,0.2-1,0.3C255.8,208.4,255.4,208.4,255.1,208.4z"/>
<path d="M236.1,411.4c-2.9,0-5.2-2.3-5.2-5.2v-79c0-2.9,2.3-5.2,5.2-5.2s5.2,2.3,5.2,5.2v79C241.3,409,239,411.4,236.1,411.4z"/>
</svg>
