<?xml version="1.0" encoding="utf-8"?>
<!-- Generator: Adobe Illustrator 24.0.2, SVG Export Plug-In . SVG Version: 6.00 Build 0)  -->
<svg version="1.1" id="Layer_1" xmlns="http://www.w3.org/2000/svg" xmlns:xlink="http://www.w3.org/1999/xlink" x="0px" y="0px"
	 viewBox="0 0 572 139" style="enable-background:new 0 0 572 139;" xml:space="preserve">
<style type="text/css">
	.st0{fill:#2B3594;}
	.st1{fill:#58595B;}
</style>
<path class="st0" d="M117.62,11v73.81l-27.96-22.5V11.37h-77.9v119.84h8.66V20.02h59.92v35.23L46.38,27.89v68.69h43.28V73.65
	l37.28,29.56V17.53L117.62,11z M80.34,87.93h-25.3V46.3l25.3,20.3V87.93z"/>
<g>
	<g>
		<path class="st1" d="M169.09,91h1.76v12.82h-1.76V91z"/>
		<path class="st1" d="M210.46,91h1.74v12.82h-1.78l-7.33-9.93v9.93h-1.76V91h1.78l7.34,9.94V91z"/>
		<path class="st1" d="M241.87,91h10.31v1.3l-8.2,9.93h8.3l-0.02,1.59h-10.62v-1.3l8.2-9.93h-7.98L241.87,91z M247.73,87.35h1.7
			l-1.92,2.44h-1.79l-1.92-2.44h1.7l1.12,1.23L247.73,87.35z"/>
		<path class="st1" d="M281.66,91h8.9v1.59h-7.14v3.96h6.39v1.59h-6.39v4.08h7.36v1.59h-9.12V91z"/>
		<path class="st1" d="M329.57,91h1.74v12.82h-1.78l-7.33-9.93v9.93h-1.76V91h1.78l7.34,9.94V91z"/>
		<path class="st1" d="M366.42,102.86c-0.67,0.69-1.61,1.04-2.8,1.04c-0.72,0-1.39-0.16-2.01-0.48c-0.62-0.32-1.17-0.77-1.63-1.36
			l0.86-1.35c0.4,0.48,0.85,0.84,1.33,1.09c0.48,0.25,0.96,0.38,1.44,0.38c0.66,0,1.17-0.2,1.52-0.6c0.35-0.4,0.53-0.96,0.53-1.69
			v-7.27h-4.52V91h6.3v8.94C367.42,101.19,367.09,102.17,366.42,102.86z"/>
		<path class="st1" d="M397.62,91h8.9v1.59h-7.14v3.96h6.39v1.59h-6.39v4.08h7.36v1.59h-9.12V91z"/>
		<path class="st1" d="M444.69,103.82l-2.55-4.03c-0.29,0.02-0.53,0.04-0.71,0.04h-3.26v3.99h-1.76V91h5.02
			c1.62,0,2.88,0.38,3.76,1.13c0.88,0.75,1.33,1.82,1.33,3.2c0,1.04-0.24,1.91-0.72,2.62c-0.48,0.71-1.18,1.22-2.08,1.54l2.99,4.34
			H444.69z M441.43,98.23c1.1,0,1.94-0.24,2.53-0.72c0.59-0.48,0.88-1.19,0.88-2.13c0-0.92-0.29-1.61-0.88-2.08
			c-0.59-0.47-1.43-0.71-2.53-0.71h-3.26v5.64H441.43z"/>
		<path class="st1" d="M476.48,91h1.76v12.82h-1.76V91z"/>
		<path class="st1" d="M517.85,91h1.74v12.82h-1.78l-7.33-9.93v9.93h-1.76V91h1.78l7.34,9.94V91z"/>
		<path class="st1" d="M558.96,97.56h1.56v4.71c-0.65,0.51-1.4,0.92-2.27,1.23c-0.87,0.31-1.73,0.46-2.58,0.46
			c-1.23,0-2.36-0.29-3.39-0.87c-1.03-0.58-1.83-1.37-2.43-2.38c-0.59-1.01-0.89-2.11-0.89-3.31c0-1.2,0.3-2.29,0.9-3.29
			c0.6-0.99,1.42-1.78,2.45-2.35c1.04-0.57,2.19-0.86,3.44-0.86c0.89,0,1.76,0.16,2.61,0.48c0.85,0.32,1.58,0.75,2.21,1.3
			l-1.01,1.28c-0.51-0.48-1.1-0.85-1.77-1.11c-0.66-0.26-1.35-0.39-2.04-0.39c-0.92,0-1.76,0.22-2.53,0.66
			c-0.77,0.44-1.38,1.04-1.82,1.79c-0.45,0.76-0.67,1.59-0.67,2.49c0,0.9,0.23,1.74,0.68,2.5c0.45,0.76,1.06,1.37,1.83,1.81
			c0.77,0.45,1.61,0.67,2.53,0.67c0.54,0,1.08-0.09,1.64-0.27c0.56-0.18,1.07-0.42,1.55-0.74V97.56z"/>
	</g>
	<g>
		<path class="st0" d="M194,41.83c2.51,2.17,3.76,5.22,3.76,9.15c0,4.1-1.26,7.28-3.79,9.54c-2.52,2.26-6.06,3.39-10.62,3.39h-9.15
			v11.46h-5.05v-36.8h14.19C187.94,38.58,191.49,39.66,194,41.83z M190.4,57.26c1.68-1.38,2.52-3.43,2.52-6.12
			c0-2.63-0.84-4.62-2.52-5.97c-1.68-1.35-4.1-2.02-7.26-2.02l-8.94,0.05v16.14h8.94C186.3,59.34,188.71,58.65,190.4,57.26z"/>
		<path class="st0" d="M235.53,40.73c2.96,1.65,5.3,3.9,7.02,6.76c1.72,2.86,2.58,6,2.58,9.44s-0.86,6.6-2.58,9.49
			c-1.72,2.89-4.06,5.17-7.02,6.83c-2.96,1.67-6.21,2.5-9.75,2.5c-3.54,0-6.79-0.83-9.75-2.5c-2.96-1.66-5.3-3.94-7.02-6.83
			c-1.72-2.89-2.58-6.05-2.58-9.49s0.86-6.58,2.58-9.44c1.72-2.86,4.05-5.11,6.99-6.76c2.94-1.65,6.2-2.47,9.78-2.47
			C229.32,38.26,232.57,39.08,235.53,40.73z M218.71,44.67c-2.19,1.26-3.93,2.97-5.23,5.13c-1.3,2.16-1.95,4.53-1.95,7.12
			s0.65,4.98,1.95,7.15c1.3,2.17,3.04,3.9,5.23,5.18c2.19,1.28,4.56,1.92,7.12,1.92c2.56,0,4.92-0.64,7.07-1.92
			c2.16-1.28,3.87-3.01,5.15-5.18c1.28-2.17,1.92-4.56,1.92-7.15s-0.64-4.97-1.92-7.12c-1.28-2.16-3-3.86-5.15-5.13
			c-2.16-1.26-4.51-1.89-7.07-1.89C223.27,42.78,220.9,43.41,218.71,44.67z"/>
		<path class="st0" d="M281.4,75.38l-7.31-11.57c-0.84,0.07-1.52,0.11-2.05,0.11h-9.36v11.46h-5.05v-36.8h14.4
			c4.66,0,8.26,1.08,10.8,3.23c2.54,2.16,3.81,5.21,3.81,9.17c0,2.98-0.69,5.49-2.08,7.52c-1.38,2.03-3.37,3.51-5.97,4.42
			l8.57,12.46H281.4z M272.04,59.34c3.15,0,5.57-0.69,7.26-2.08c1.68-1.38,2.52-3.43,2.52-6.12c0-2.63-0.84-4.62-2.52-5.97
			c-1.68-1.35-4.1-2.02-7.26-2.02h-9.36v16.19H272.04z"/>
		<path class="st0" d="M296.17,38.58h28.76v4.63h-11.88v32.17H308V43.2h-11.83V38.58z"/>
		<path class="st0" d="M359.78,75.38l-3.89-8.94h-19.4l-3.84,8.94h-5.31l16.35-36.8h5.26l16.3,36.8H359.78z M338.49,61.86h15.46
			l-7.78-17.87L338.49,61.86z"/>
		<path class="st0" d="M421.08,38.58h4.99v36.8h-5.1l-21.03-28.49v28.49h-5.05v-36.8h5.1l21.08,28.55V38.58z"/>
		<path class="st0" d="M467.74,40.73c2.96,1.65,5.3,3.9,7.02,6.76c1.72,2.86,2.58,6,2.58,9.44s-0.86,6.6-2.58,9.49
			c-1.72,2.89-4.06,5.17-7.02,6.83c-2.96,1.67-6.21,2.5-9.75,2.5c-3.54,0-6.79-0.83-9.75-2.5c-2.96-1.66-5.3-3.94-7.02-6.83
			c-1.72-2.89-2.58-6.05-2.58-9.49s0.86-6.58,2.58-9.44c1.72-2.86,4.05-5.11,6.99-6.76c2.94-1.65,6.2-2.47,9.78-2.47
			C461.53,38.26,464.78,39.08,467.74,40.73z M450.92,44.67c-2.19,1.26-3.93,2.97-5.23,5.13c-1.3,2.16-1.95,4.53-1.95,7.12
			s0.65,4.98,1.95,7.15c1.3,2.17,3.04,3.9,5.23,5.18c2.19,1.28,4.56,1.92,7.12,1.92c2.56,0,4.92-0.64,7.07-1.92
			c2.16-1.28,3.87-3.01,5.15-5.18c1.28-2.17,1.92-4.56,1.92-7.15s-0.64-4.97-1.92-7.12c-1.28-2.16-3-3.86-5.15-5.13
			c-2.16-1.26-4.51-1.89-7.07-1.89C455.48,42.78,453.11,43.41,450.92,44.67z"/>
		<path class="st0" d="M484.38,38.58h5.42l12.14,31.18l12.14-31.18h5.31l-14.93,36.8h-5.26L484.38,38.58z"/>
		<path class="st0" d="M555.04,75.38l-3.89-8.94h-19.4l-3.84,8.94h-5.31l16.35-36.8h5.26l16.3,36.8H555.04z M533.75,61.86h15.46
			l-7.78-17.87L533.75,61.86z"/>
	</g>
</g>
</svg>
