<?xml version="1.0" encoding="utf-8"?>
<!-- Generator: Adobe Illustrator 24.0.2, SVG Export Plug-In . SVG Version: 6.00 Build 0)  -->
<svg version="1.1" id="Layer_2_1_" xmlns="http://www.w3.org/2000/svg" xmlns:xlink="http://www.w3.org/1999/xlink" x="0px" y="0px"
	 viewBox="0 0 512 370.4" style="enable-background:new 0 0 512 370.4;" xml:space="preserve">
<path d="M467.7,96.3l-36.5-29.2c-1-0.8-2.3-1.3-3.7-1.3h-112V39.1c0-16.1-13.1-29.2-29.2-29.2h-60.6c-16.1,0-29.2,13.1-29.2,29.2
	v26.7h-112c-3.2,0-5.8,2.6-5.8,5.8l0,0v23.8H61.4c-10.6,0-19.2,8.6-19.2,19.2v106.1c0,10.6,8.6,19.2,19.2,19.2h17.3v23.8
	c0,3.2,2.6,5.8,5.8,5.8l0,0h37V311h-9.2c-13.4,0-24.2,10.8-24.2,24.2s10.8,24.2,24.2,24.2h287.4c13.4,0,24.2-10.8,24.2-24.2
	S413.1,311,399.7,311h-3.3v-41.5h31.2c1.3,0,2.6-0.5,3.7-1.3l36.5-29.2c1.4-1.1,2.2-2.8,2.2-4.6V100.9
	C469.9,99.1,469,97.4,467.7,96.3z M208.2,39.1c0-9.7,7.9-17.5,17.5-17.5h60.6c9.7,0,17.5,7.9,17.5,17.5v26.7h-95.7V39.1H208.2z
	 M202.3,77.6h182.3V258H133.2V77.6H202.3z M173.9,311.2v-41.5H344v41.5H173.9z M61.4,228.4c-4.1,0-7.5-3.4-7.5-7.5V114.7
	c0-4.2,3.4-7.5,7.5-7.5h17.3v121.1H61.4V228.4z M90.3,234.2V77.6h31.2V258H90.3V234.2z M133.2,269.7h29v41.5h-29V269.7z
	 M412.2,335.4c0,6.9-5.6,12.5-12.5,12.5H112.3c-6.9,0-12.5-5.6-12.5-12.5s5.6-12.5,12.5-12.5h287.4
	C406.6,322.9,412.2,328.5,412.2,335.4z M355.7,311.2v-41.5h29v41.5H355.7z M458.2,231.9L425.5,258h-29.1V77.6h29.1l32.7,26.1V231.9z
	"/>
<path d="M405.3,99.4h-45.7H204h-45.7c-3.2,0-5.8,2.6-5.8,5.8c-0.1,3.1,2.5,5.8,5.8,5.8H204h155.6h45.7c3.2,0,5.8-2.6,5.8-5.8
	S408.5,99.4,405.3,99.4z"/>
<path d="M158.3,142.3h201.3c3.2,0,5.8-2.6,5.8-5.8s-2.6-5.8-5.8-5.8l0,0H158.3c-3.2,0-5.8,2.6-5.8,5.8S155,142.3,158.3,142.3z"/>
<path d="M158.3,173.6h201.3c3.2,0,5.8-2.6,5.8-5.8s-2.6-5.8-5.8-5.8l0,0H158.3c-3.2,0-5.8,2.6-5.8,5.8
	C152.4,171,155,173.6,158.3,173.6z"/>
<path d="M158.3,205h201.3c3.2,0,5.8-2.6,5.8-5.8s-2.6-5.8-5.8-5.8l0,0H158.3c-3.2,0-5.8,2.6-5.8,5.8S155,205,158.3,205z"/>
<path d="M405.3,224.7h-45.7H204h-45.7c-3.2,0-5.8,2.6-5.8,5.8c-0.1,3.2,2.5,5.8,5.8,5.8H204h155.6h45.7c3.2,0,5.8-2.6,5.8-5.8
	C411.1,227.3,408.5,224.7,405.3,224.7z"/>
<path d="M277.5,37.9h-43c-3.2,0-5.8,2.6-5.8,5.8s2.6,5.8,5.8,5.8h43c3.2,0,5.8-2.6,5.8-5.8C283.4,40.5,280.7,37.9,277.5,37.9z"/>
<path d="M44.5,177.7H13.9c-3.7,0-6.7-3-6.7-6.7v-2.3c0-3.7,3-6.7,6.7-6.7h30.6c3.7,0,6.7,3,6.7,6.7v2.3
	C51.2,174.7,48.2,177.7,44.5,177.7z"/>
<path d="M478.9,177.7h-10.5c-3.7,0-6.7-3-6.7-6.7v-2.3c0-3.7,3-6.7,6.7-6.7h10.5c3.7,0,6.7,3,6.7,6.7v2.3
	C485.6,174.7,482.6,177.7,478.9,177.7z"/>
</svg>
