<?xml version="1.0" encoding="utf-8"?>
<!-- Generator: Adobe Illustrator 24.0.2, SVG Export Plug-In . SVG Version: 6.00 Build 0)  -->
<svg version="1.1" id="icons" xmlns="http://www.w3.org/2000/svg" xmlns:xlink="http://www.w3.org/1999/xlink" x="0px" y="0px"
	 viewBox="0 0 512 512" style="enable-background:new 0 0 512 512;" xml:space="preserve">
<path d="M433.3,154.2L433.3,154.2L325.8,46.7l-0.1,0.1c-8.9-4-20.1-2.5-27.2,4.5l-11.3,11.3c-7.4,7.4-8.8,18.3-4.6,27.2l-29.3,29.3
	c-4.2,4.2-5.5,10.1-4.1,15.4L224,159.8v-18c4.8-2.8,8-7.9,8-13.8V86.5c9.3-3.3,16-12.1,16-22.5V48c0-10.4-6.7-19.2-16-22.5l-152,0
	C70.7,28.8,64,37.6,64,48v16c0,10.4,6.7,19.2,16,22.5V128c0,5.9,3.2,11,8,13.8v228.5c-4.8,2.8-8,7.9-8,13.8v41.5
	c-9.3,3.3-16,12.1-16,22.5v16c0,9.2,5.2,17.1,12.8,21.1c1.1,0.6,2.3,0.9,3.5,0.9h150.1c2.3,0,4.6-0.7,6.5-1.9
	c6.6-4.3,11-11.6,11-20.1v-16c0-10.4-6.7-19.2-16-22.5V384c0-5.9-3.2-11-8-13.8v-14.7c0-2.2,0.9-4.2,2.4-5.8l119-119
	c1.3,0.4,2.7,0.6,4.1,0.6h0c4.2,0,8.2-1.7,11.3-4.7c0,0,0,0,0,0l29.3-29.3c3.2,1.5,6.6,2.4,10.3,2.4c6.4,0,12.5-2.5,17-7l11.3-11.3
	C436,174.1,437.5,163.1,433.3,154.2z M88,72c-4.4,0-8-3.6-8-8V48c0-4.4,3.6-8,8-8h136c4.4,0,8,3.6,8,8v16c0,4.4-3.6,8-8,8H88z
	 M216,88v39.9c0,0,0,0,0,0.1H96V88H216z M216,384L216,384l0,40H96v-40H216z M224,440c4.4,0,8,3.6,8,8v16c0,4.4-3.6,8-8,8H88
	c-4.4,0-8-3.6-8-8v-16c0-4.4,3.6-8,8-8H224z M211,341c-1.9,1.9-3,4.5-3,7.2V368H104V144h104v45.8c0,2.8,3.4,4.3,5.4,2.3l29.8-29
	l15.7-15.7l73.5,73.5L211,341z M349.5,215.4l-84.9-84.9l28.3-28.3l84.9,84.9L349.5,215.4z M417.3,170.1L406,181.4c-3,3-8.3,3-11.3,0
	l-96.2-96.2c-3.1-3.1-3.1-8.2,0-11.3l11.3-11.3c1.5-1.5,3.5-2.3,5.7-2.3c2.2,0,4.2,0.8,5.7,2.3l96.2,96.2
	C420.5,161.9,420.5,167,417.3,170.1z"/>
</svg>
