<?xml version="1.0" encoding="utf-8"?>
<!-- Generator: Adobe Illustrator 24.0.2, SVG Export Plug-In . SVG Version: 6.00 Build 0)  -->
<svg version="1.1" id="Layer_1" xmlns="http://www.w3.org/2000/svg" xmlns:xlink="http://www.w3.org/1999/xlink" x="0px" y="0px"
	 viewBox="0 0 469.6 228" style="enable-background:new 0 0 469.6 228;" xml:space="preserve">
<path d="M110.3,171h25c3.3,0,6-2.7,6-6s-2.7-6-6-6h-25c-3.3,0-6,2.7-6,6S107,171,110.3,171z"/>
<path d="M165.8,171h95c3.3,0,6-2.7,6-6s-2.7-6-6-6h-95c-3.3,0-6,2.7-6,6S162.5,171,165.8,171L165.8,171z"/>
<path d="M442.5,19.3h-54c-8.8,0-16,7.2-16,16V41h-2.4H311H156h-21.2H94.5v-6c0-8.8-7.2-16-16-16h-54c-8.8,0-16,7.2-16,16v164
	c0,8.8,7.2,16,16,16h54c8.8,0,16-7.2,16-16v-6h278v6c0,8.8,7.1,15.9,15.9,16l54,0.3h0.1c8.8,0,16-7.2,16-16v-164
	C458.5,26.5,451.3,19.3,442.5,19.3z M82.5,199c0,2.2-1.8,4-4,4h-54c-2.2,0-4-1.8-4-4v-42h62V199z M82.5,145h-62V89h62V145z M82.5,77
	h-62V35c0-2.2,1.8-4,4-4h54c2.2,0,4,1.8,4,4V77z M372.5,181h-278V53h278V181z M446.5,199.3c0,2.2-1.8,4-4,4l-54-0.3
	c-2.2,0-4-1.8-4-4v-42h62V199.3z M446.5,145h-62V89h62V145z M446.5,77h-62V35.4c0-2.2,1.8-4,4-4h54c2.2,0,4,1.8,4,4V77z"/>
<circle cx="288" cy="165" r="6"/>
</svg>
